<?xml version="1.0" encoding="UTF-8"?><svg id="Layer_1" xmlns="http://www.w3.org/2000/svg" viewBox="0 0 20 20"><defs><style>.cls-1{stroke-width:2px;}.cls-1,.cls-2{fill:none;stroke:#eacdc2;stroke-linecap:round;stroke-linejoin:round;}</style></defs><path class="cls-1" d="m19,13c0,1.1-.9,2-2,2H5l-4,4V3c0-1.1.9-2,2-2h14c1.1,0,2,.9,2,2v10Z"/><polyline class="cls-2" points="5.49 4.77 5.49 7.23 7.95 7.23"/><polyline class="cls-2" points="14.51 11.33 14.51 8.87 12.05 8.87"/><path class="cls-2" d="m13.48,6.82c-.68-1.92-2.79-2.93-4.71-2.25-.52.18-.99.48-1.38.87l-1.9,1.79m9.03,1.64l-1.9,1.79c-1.44,1.44-3.78,1.44-5.22,0-.39-.39-.69-.86-.87-1.38"/></svg>