<?xml version="1.0" encoding="utf-8"?>
<!-- Generator: Adobe Illustrator 27.3.1, SVG Export Plug-In . SVG Version: 6.00 Build 0)  -->
<svg version="1.1" id="Layer_1" xmlns="http://www.w3.org/2000/svg" xmlns:xlink="http://www.w3.org/1999/xlink" x="0px" y="0px"
	 viewBox="0 0 24 24" style="enable-background:new 0 0 24 24;" xml:space="preserve">
<style type="text/css">
	.st0{display:none;}
	.st1{display:inline;fill:none;stroke:#EACDC2;stroke-width:2;stroke-linecap:round;stroke-linejoin:round;}
	.st2{fill:#B75D69;stroke:#D19596;stroke-width:2;stroke-linecap:round;stroke-linejoin:round;}
	.st3{fill:none;stroke:#EACDC2;stroke-width:2;stroke-linecap:round;stroke-linejoin:round;}
	.st4{fill:none;stroke:#D19596;stroke-width:2;stroke-linecap:round;stroke-linejoin:round;}
	.st5{fill:#D19596;stroke:#EACDC2;stroke-width:2;stroke-linecap:round;stroke-linejoin:round;}
</style>
<g class="st0">
	<path class="st1" d="M12.9,2.1h-6c-1,0-1.7,0.8-1.7,1.7v13.8c0,1,0.8,1.7,1.7,1.7h10.3c1,0,1.7-0.8,1.7-1.7V8.1L12.9,2.1z"/>
	<polyline class="st1" points="12.9,2.1 12.9,8.1 18.9,8.1 	"/>
</g>
<path class="st2" d="M9,9.5l2,3h7.9V8.1l-6-6h-6c-1,0-1.7,0.8-1.7,1.7v5.7H9z"/>
<path class="st3" d="M22,20.1c0,1.1-0.9,2-2,2H4c-1.1,0-2-0.9-2-2v-8.6c0-1.1,0.9-2,2-2h5l2,3h9c1.1,0,2,0.9,2,2V20.1z"/>
<polyline class="st4" points="12.9,2.1 12.9,8.1 18.9,8.1 "/>
<path class="st5" d="M22,20.1c0,1.1-0.9,2-2,2H4c-1.1,0-2-0.9-2-2v-8.6c0-1.1,0.9-2,2-2h5l2,3h9c1.1,0,2,0.9,2,2V20.1z"/>
</svg>
